<?xml version="1.0" encoding="utf-8"?>
<!-- Generator: Adobe Illustrator 24.0.2, SVG Export Plug-In . SVG Version: 6.00 Build 0)  -->
<svg version="1.1" id="Capa_1" xmlns="http://www.w3.org/2000/svg" xmlns:xlink="http://www.w3.org/1999/xlink" x="0px" y="0px"
	 viewBox="0 0 210.4 324.7" style="enable-background:new 0 0 210.4 324.7;" xml:space="preserve">
<style type="text/css">
	.st0{fill-rule:evenodd;clip-rule:evenodd;fill:#293357;}
	.st1{fill:#293357;}
	.st2{fill:#00A3C7;}
</style>
<path class="st0" d="M202.1,141.2c-11.8-27.2-41.9-31.9-67.3-31.9c0,0-0.1,0-0.1,0v0c-9.9,0-32,3.1-32,3.1l0,145.7
	c9.9,0,32,0,32-16.1v-0.3c0,0,0,0,0,0v-23.2C188,226.5,221,185,202.1,141.2 M157,192.8c-11.9,1.3-22.5-0.3-22.5-0.3l0-54
	c0,0,9.6-0.6,22.1,0.2c12.5,0.8,21.2,12.9,21.2,27.6C177.7,181,169,191.5,157,192.8"/>
<path class="st1" d="M108.3,16.5c-48.6,65.1-75.7,189.6-12.2,286c9.8,14.1,17.3,21.2,17.3,21.2C42.1,217.8,93.4,79.2,146.4,8.2
	L98.8,2.1c0,0-22.2-6.2-31.4,9.1L108.3,16.5z"/>
<path class="st2" d="M109.1,323.7C26.3,234.4,35.7,92.9,85.6,26c0,0-37.2-4.4-44.5-5.2c-9.1-1-28.1-5-32.3,16.1
	C-32.9,243.2,109.1,323.7,109.1,323.7"/>
</svg>
